<?xml version="1.0" encoding="UTF-8"?><svg id="Capa_2" xmlns="http://www.w3.org/2000/svg" viewBox="0 0 443.52 465.66"><defs><style>.cls-1{fill:#29abe2;}.cls-2{fill:#0071bc;}.cls-3{fill:#2e3192;}.cls-4{fill:#fff;}.cls-5{fill:blue;}.cls-6{fill:#f2f2f2;}.cls-7{fill:#c1272d;}.cls-8{fill:#1b1464;}.cls-9{fill:#eefa9b;}.cls-10{fill:#e05f69;}</style></defs><g id="Capa_6"><path class="cls-3" d="M79.99,324.68s-48.96,122.08-68.34,109.29c-5.1-3.37,56.56-123.29,56.56-123.29l11.78,14Z"/><path class="cls-3" d="M126.29,392.1c-6.09,6.67-19.39,25.55-30.66,25.55-6.95,0-11.58-5.09-17.89-9.79-4.9-3.65,36.77-29.75,36.77-29.75,0,0,14.86,10.62,11.78,14Z"/><path class="cls-8" d="M51.87,385.15l25.08,22.15c6.5,4.85,15.44,4.71,21.78-.35l21.88-21.8-45.35-49.38-23.4,49.38Z"/><path class="cls-3" d="M337,352.58c-5.07,22.62-115.24,123.49-126.04,109.02-3.66-4.9,118.82-125.83,118.82-125.83,0,0,8.22,12.35,7.22,16.81Z"/><path class="cls-3" d="M375.81,389.48s-35.43,46.58-48.23,34.03c-4.37-4.28,33.09-44.93,33.09-44.93l15.14,10.89Z"/><path class="cls-8" d="M367.03,388.09l-28.9,32c-6.5,4.85-14.08,4.49-20.42-.56l-26.02-13.08s33.48-28.62,45.57-55.43c4.89-10.83,29.77,37.06,29.77,37.06Z"/><path class="cls-1" d="M65.21,321.84c-32.17,93.06-47.97,111.82-53.75,111.53-10.67-.52-14.01-128.09-9.52-154.55,8.48-49.87,14.74-89.2,21.44-106.03-2.67-.49-6.48-5.02-3.97-9.52.98-1.75.71-1,2.41-3.45,1.88-2.72,8.57-6.17,8.57-6.17-3.25-.37-11.61,4.29-17.67-1.15-1.39-1.24-.31-3.76,1.57-5.33,3.01-2.52,15.79.31,12.42-1.92-4.75-3.15-6.17-7.84-6.17-7.84,0,0-.29-5.5,4.52-3.31,4.9,2.24,10.8,7.93,11.29,7.01C95.22,30.79,206.3,38.08,207.11,37.9c19.24-4.29,13.5-18.75,45.7-35.13,11.92-6.06,13.11-.39,17.36.52,2.93.63,5.65,3.56,3.03,7.53-5.52,8.39-31.58,17.57-29.74,18.52,0,0,38.67-15.35,49.5-.01,3.76,5.33-19.97,7.67-27.36,9.6-1.3.34-1.23,1.27-.25,1.38,35.55,3.97,57.2,16.63,63.05,18.51,28.88,9.28,65.98,60.34,70.37,83.03.29,1.5,2.1.68,2.65-.74,1.74-4.49,6.34-10.66,8.85-5.43,3.31,6.89-6.88,9.44-4.5,11.61,1.15,1.05,6.27-6.9,12.55-3.45,1.23.68,2.04,5.07-1.32,6.66-7.57,3.58-13.64.55-13.01,2.75.38,1.33,9.72,2.61,13.01,8.52,1.7,3.06-1.17,5.48-2.87,5.59-1.43.1-3.4-.86-4.71-1.57,0,0-2.18-.67-1.28,2.14,1.37,4.29,17.59,42.09,27,128.15,4.94,45.14,8.65,100.18,8.33,133.35-.06,6.64-4.88,6.68-7.39,6.88-19.19,1.51-63.89-42.98-63.89-42.98,0,0-44.23-44.75-44.75-43.71-13.65,27.3-105.71,120.78-113.25,115.86-95.36-62.21-149.01-143.64-149.01-143.64Z"/><path class="cls-6" d="M276.6,147.65s10.34,70.23-54.84,76.53c-47.49,4.6-62.07-45.25-62.07-45.25,13.66-10.6,44.68-20.03,44.68-20.03,7.37-3.04,15.15-4.96,23.08-5.7,0,0,22.82-4.95,49.15-5.56Z"/><path class="cls-5" d="M236.4,151.51c3.95,1.37,9.05,37.08-23.28,38.31-25.82.98-28.57-26.35-26.03-26.13,6.49-3.76,16.88-5.35,16.88-5.35,3.49-1.39,8.11-3.11,11.87-3.45,0,0,8.07-3.11,20.56-3.39Z"/><circle class="cls-4" cx="202.04" cy="177.95" r="8.18"/><path d="M222.01,154.42c1.82.65,4.14,17.34-10.7,18.3-12.07.78-13.27-12.37-11.97-12.48,2.98-1.8,7.76-2.55,7.76-2.55,1.61-.66,3.73-1.49,5.46-1.65,0,0,3.71-1.49,9.45-1.62Z"/><path class="cls-6" d="M283.89,146.96s.49,14.1,8.11,26.04c1.25,1.96,9.43-1.29,26.68-2.47,9.13-.63,24.51,11.69,27.27,9.51,12.48-9.86,13.96-22.39,13.96-22.39-9.72-4.64-30.5-8.59-30.5-8.59-4.98-.95-10.37-2.52-15.48-2.08,0,0-13.25-2.52-30.03-.01Z"/><path class="cls-5" d="M286.25,146.81c-2.21,1.2-1.46,21,17.9,17.87,15.47-2.5,14.21-17.51,12.72-17.1-4.26-1.26-10.61-.9-10.61-.9-2.22-.34-5.15-.72-7.42-.46,0,0-5.13-.73-12.59.59Z"/><ellipse class="cls-4" cx="309.49" cy="157" rx="4.96" ry="4.48" transform="translate(-24.51 62.79) rotate(-11.15)"/><path d="M295.12,146.69c-1.01.56-.63,9.81,8.3,8.58,7.26-1,6.59-8.21,5.8-8.11-1.96-.62-4.89-.46-4.89-.46-1.03-.17-2.37-.36-3.42-.25,0,0-2.37-.36-5.79.24Z"/><path class="cls-3" d="M246.49,279.46c-.45-.12-1.02,1.43-.66,1.73,10.27,8.57,21.26,1.86,37.65,27.4,2.93,4.56,3.44.82,2.99-2.35-.69-5.76-2.99-16.9-39.98-26.78Z"/><path class="cls-3" d="M148.74,183.07l4.51-.58c.99-.13,1.93-.5,2.75-1.07,7.38-5.18,41.09-27.98,105.63-32.8,48.27-3.61,67.53-1.06,101.28,10.01,7.62,2.5,2.31-3.38,2.31-3.38,0,0-48.01-26.13-122.85-13.37-63.56,10.84-87.49,31.74-93.77,37.7-1.02.97-.95,2.61.14,3.49Z"/><path class="cls-3" d="M235.97,276.71c-.43-.18-8.09-.44-7.94,0,4.47,12.61,10.83,5.73,14.46,30.98.77,5.37,2.54,2.46,3.77-.49,2.34-5.31.99-25.68-10.29-30.48Z"/><path class="cls-3" d="M208.8,270.92c-.3-.35-18,.26-17.8.68,5.84,12.04,19.78.3,24.22,30.31.79,5.37,2.8,2.16,3.69-.91,1.74-5.54.41-17.88-10.11-30.08Z"/><path class="cls-7" d="M131.46,251.6s-2.06,15.47-4.27,22.88-22.21,29.53-13.62,55.73c8.59,26.2,40.11,33.11,46.12,32.82,6.01-.28,33.9-.28,44.61-36.91,10.71-36.63-8.73-56.35-8.73-56.35l-47.19-31.98s-15.39,3.87-16.91,13.81Z"/><path class="cls-10" d="M175.7,325.85s7.33-23.53,2.39-35.78c-4.93-12.26-14.09-32.54-30.43-30.15-16.34,2.39-17.99,45.37-17.75,46.77,1.24,7.32,2.57,31.4,35.22,36.21,32.97,4.85,37-10.41,37-10.41.5,1.38,12.94-41.85-2.35-50.87-14.6-8.61-16.06,8.5-16.06,8.5,0,0,2.96,20.57-8.03,35.74Z"/><path class="cls-3" d="M157.24,82.55c-5.95,2.19-21.17,20.68-19.85,29.46,1.3,8.69,8.02,11.48,12.17,11.3,78.87-3.48,72.15-80.91,63.98-94.07-2.15-3.47-4.37-4.75-6.41-4.45-3.69.54-22.27,47.59-49.89,57.77Z"/><path class="cls-3" d="M355.3,105.06c4.09,1.85,18.45,8.8,18.44,17.54,0,6.22-4.13,9.04-7.05,9.4-48,5.97-63.97-44.32-56.43-57.46,1.44-2.51,3.13-3.58,4.59-3.58,2.97,0,14.81,22.47,40.45,34.09Z"/><path class="cls-9" d="M120.61,193.94c-1.13-3.38-29.13,17.67-9.39,44.52,14.09,19.16,41.97,8.75,38.7,4.51-8.52-11.04-22.36-28.18-29.31-49.02Z"/><path class="cls-9" d="M211.1,279.78c4.43,1.43-11.6,15.22-27.38,10.33-26.24-8.12-19.8-33.85-17.51-32.23l44.89,21.89Z"/><path class="cls-9" d="M307.96,268.62c1.24-.92,3,17.36-15.47,26-14.46,6.76-33.06-8.88-27.05-10.52l42.52-15.48Z"/><path class="cls-9" d="M343.01,232.07c.99-1.88,14.09,23.48,3.19,32.87-11.95,10.3-30.35-3.01-27.77-5.25l24.58-27.62Z"/><path class="cls-2" d="M113.51,166.89c-.59-1.26-1.28-.39-1.05.23,9,24.47,11.72,42.9,34.29,71.81,20.07,25.72,60.22,43.44,96.36,46.15,28.79,2.16,50.71-8.2,67.41-18.25,16.64-10.02,35.97-32.31,41.79-50.81.27-.84-.99-.63-1.5.09-12.68,17.66-40.73,49.5-68,56.91-41.28,11.23-90.37-1.15-133.82-42.53-10.81-10.3-23.87-38.81-35.48-63.6Z"/><path class="cls-2" d="M129.05,162.32c-20.7-21.44-27.52,8.55-28.06,17.23-.03.54-1.88,1.27-2.08-.59-.71-6.67.37-24.44,9.6-29.16,8.92-4.57,18.52,5.17,21.44,12.3.7,1.71-.17.98-.9.22Z"/><path class="cls-2" d="M333.7,213.12c20.73-15.35,30.23,1.31,25.62,25.8-.12.66.62,1.66.72,1.5,6.15-9.93,8.77-34.78-3.2-39.86-7.32-3.11-20.75,3.31-24.02,12.18-.78,2.13-.12,1.11.89.37Z"/></g></svg>